{
  "accessors": [
    {
      "bufferView": 2,
      "componentType": 5126,
      "count": 407,
      "max": [
        16.640609741210938,
        17.162960052490234,
        16.640609741210938
      ],
      "min": [
        -16.640609741210938,
        -17.129100799560547,
        -16.640609741210938
      ],
      "type": "VEC3"
    },
    {
      "bufferView": 2,
      "byteOffset": 4884,
      "componentType": 5126,
      "count": 407,
      "max": [
        0.99999696016311646,
        1,
        0.99999696016311646
      ],
      "min": [
        -0.99999696016311646,
        -1,
        -0.99999696016311646
      ],
      "type": "VEC3"
    },
    {
      "bufferView": 2,
      "byteOffset": 9768,
      "componentType": 5126,
      "count": 407,
      "max": [
        1,
        1,
        1
      ],
      "min": [
        1,
        1,
        1
      ],
      "type": "VEC3"
    },
    {
      "bufferView": 1,
      "componentType": 5126,
      "count": 407,
      "max": [
        1.0000100135803223,
        0.99928998947143555
      ],
      "min": [
        0,
        0.0006399999838322401
      ],
      "type": "VEC2"
    },
    {
      "bufferView": 0,
      "componentType": 5125,
      "count": 2304,
      "max": [
        406
      ],
      "min": [
        0
      ],
      "type": "SCALAR"
    },
    {
      "bufferView": 2,
      "byteOffset": 14652,
      "componentType": 5126,
      "count": 6418,
      "max": [
        11.358699798583984,
        4.4027299880981445,
        12.009759902954102
      ],
      "min": [
        -4.4047298431396484,
        -8.75177001953125,
        -3.8771400451660156
      ],
      "type": "VEC3"
    },
    {
      "bufferView": 2,
      "byteOffset": 91668,
      "componentType": 5126,
      "count": 6418,
      "max": [
        0.99985009431838989,
        0.99675023555755615,
        0.9999232292175293
      ],
      "min": [
        -0.9991229772567749,
        -0.99883663654327393,
        -0.99643105268478394
      ],
      "type": "VEC3"
    },
    {
      "bufferView": 1,
      "byteOffset": 3256,
      "componentType": 5126,
      "count": 6418,
      "max": [
        0.99711000919342041,
        1
      ],
      "min": [
        0,
        0
      ],
      "type": "VEC2"
    },
    {
      "bufferView": 1,
      "byteOffset": 54600,
      "componentType": 5126,
      "count": 6418,
      "max": [
        0.99711000919342041,
        1
      ],
      "min": [
        0,
        0
      ],
      "type": "VEC2"
    },
    {
      "bufferView": 0,
      "byteOffset": 9216,
      "componentType": 5125,
      "count": 10452,
      "max": [
        6417
      ],
      "min": [
        0
      ],
      "type": "SCALAR"
    },
    {
      "bufferView": 2,
      "byteOffset": 168684,
      "componentType": 5126,
      "count": 1535,
      "max": [
        27.965499877929688,
        13.552470207214355,
        20.386589050292969
      ],
      "min": [
        -10.444930076599121,
        -21.546350479125977,
        -3.7429499626159668
      ],
      "type": "VEC3"
    },
    {
      "bufferView": 2,
      "byteOffset": 187104,
      "componentType": 5126,
      "count": 1535,
      "max": [
        0.99141955375671387,
        0.99470305442810059,
        1
      ],
      "min": [
        -0.99704355001449585,
        -0.99989289045333862,
        -0.99924749135971069
      ],
      "type": "VEC3"
    },
    {
      "bufferView": 1,
      "byteOffset": 105944,
      "componentType": 5126,
      "count": 1535,
      "max": [
        0.99743998050689697,
        0.93229997158050537
      ],
      "min": [
        0.0003499999875202775,
        0.0003499999875202775
      ],
      "type": "VEC2"
    },
    {
      "bufferView": 0,
      "byteOffset": 51024,
      "componentType": 5125,
      "count": 6429,
      "max": [
        1534
      ],
      "min": [
        0
      ],
      "type": "SCALAR"
    },
    {
      "bufferView": 2,
      "byteOffset": 205524,
      "componentType": 5126,
      "count": 41750,
      "max": [
        15.317429542541504,
        4.2819299697875977,
        3.6189498901367188
      ],
      "min": [
        -4.0482001304626465,
        -4.2936100959777832,
        -1.7309000492095947
      ],
      "type": "VEC3"
    },
    {
      "bufferView": 2,
      "byteOffset": 706524,
      "componentType": 5126,
      "count": 41750,
      "max": [
        1,
        1,
        1
      ],
      "min": [
        -1,
        -1,
        -1
      ],
      "type": "VEC3"
    },
    {
      "bufferView": 1,
      "byteOffset": 118224,
      "componentType": 5126,
      "count": 41750,
      "max": [
        0.99993002414703369,
        0.99922001361846924
      ],
      "min": [
        0.00044999999227002263,
        0.00025000001187436283
      ],
      "type": "VEC2"
    },
    {
      "bufferView": 0,
      "byteOffset": 76740,
      "componentType": 5125,
      "count": 185799,
      "max": [
        41749
      ],
      "min": [
        0
      ],
      "type": "SCALAR"
    },
    {
      "bufferView": 2,
      "byteOffset": 1207524,
      "componentType": 5126,
      "count": 4,
      "max": [
        16.081090927124023,
        18.871189117431641,
        12.12300968170166
      ],
      "min": [
        -12.657569885253906,
        -5.6727199554443359,
        -4.7939701080322266
      ],
      "type": "VEC3"
    },
    {
      "bufferView": 2,
      "byteOffset": 1207572,
      "componentType": 5126,
      "count": 4,
      "max": [
        0.21749933063983917,
        -0.4216286838054657,
        0.88029724359512329
      ],
      "min": [
        0.21749933063983917,
        -0.4216286838054657,
        0.88029724359512329
      ],
      "type": "VEC3"
    },
    {
      "bufferView": 1,
      "byteOffset": 452224,
      "componentType": 5126,
      "count": 4,
      "max": [
        0.99989998340606689,
        0.99989998340606689
      ],
      "min": [
        9.9999997473787516e-05,
        9.9999997473787516e-05
      ],
      "type": "VEC2"
    },
    {
      "bufferView": 0,
      "byteOffset": 819936,
      "componentType": 5125,
      "count": 6,
      "max": [
        3
      ],
      "min": [
        0
      ],
      "type": "SCALAR"
    }
  ],
  "asset": {
    "extras": {
      "author": "luyssport (https://sketchfab.com/luyssport)",
      "license": "CC-BY-NC-SA-4.0 (http://creativecommons.org/licenses/by-nc-sa/4.0/)",
      "source": "https://sketchfab.com/3d-models/tf-843d881185684b5caf6d7d79de612438",
      "title": "TF"
    },
    "generator": "Sketchfab-8.49.0",
    "version": "2.0"
  },
  "bufferViews": [
    {
      "buffer": 0,
      "byteLength": 819960,
      "byteOffset": 0,
      "name": "floatBufferViews",
      "target": 34963
    },
    {
      "buffer": 0,
      "byteLength": 452256,
      "byteOffset": 819960,
      "byteStride": 8,
      "name": "floatBufferViews",
      "target": 34962
    },
    {
      "buffer": 0,
      "byteLength": 1207620,
      "byteOffset": 1272216,
      "byteStride": 12,
      "name": "floatBufferViews",
      "target": 34962
    }
  ],
  "buffers": [
    {
      "byteLength": 2479836,
      "uri": "scene.bin"
    }
  ],
  "extensionsUsed": [
    "KHR_materials_unlit"
  ],
  "images": [
    {
      "uri": "textures/test_baseColor.png"
    },
    {
      "uri": "textures/material_baseColor.jpeg"
    },
    {
      "uri": "textures/ground_baseColor.jpeg"
    },
    {
      "uri": "textures/material_3_baseColor.png"
    },
    {
      "uri": "textures/material_4_baseColor.jpeg"
    }
  ],
  "materials": [
    {
      "alphaMode": "BLEND",
      "doubleSided": true,
      "emissiveFactor": [
        1,
        1,
        0.10568839757548075
      ],
      "extensions": {
        "KHR_materials_unlit": {}
      },
      "name": "test",
      "pbrMetallicRoughness": {
        "baseColorFactor": [
          1,
          1,
          1,
          1
        ],
        "baseColorTexture": {
          "index": 0,
          "texCoord": 0
        },
        "metallicFactor": 0,
        "roughnessFactor": 1
      }
    },
    {
      "doubleSided": true,
      "emissiveFactor": [
        0,
        0,
        0
      ],
      "extensions": {
        "KHR_materials_unlit": {}
      },
      "name": "material",
      "pbrMetallicRoughness": {
        "baseColorFactor": [
          1,
          1,
          1,
          1
        ],
        "baseColorTexture": {
          "index": 1,
          "texCoord": 0
        },
        "metallicFactor": 0,
        "roughnessFactor": 1
      }
    },
    {
      "doubleSided": true,
      "extensions": {
        "KHR_materials_unlit": {}
      },
      "name": "ground",
      "pbrMetallicRoughness": {
        "baseColorFactor": [
          1,
          1,
          1,
          1
        ],
        "baseColorTexture": {
          "index": 2,
          "texCoord": 0
        },
        "metallicFactor": 0,
        "roughnessFactor": 1
      }
    },
    {
      "alphaMode": "BLEND",
      "doubleSided": true,
      "extensions": {
        "KHR_materials_unlit": {}
      },
      "name": "material_3",
      "pbrMetallicRoughness": {
        "baseColorFactor": [
          1,
          1,
          1,
          1
        ],
        "baseColorTexture": {
          "index": 3,
          "texCoord": 0
        },
        "metallicFactor": 0,
        "roughnessFactor": 1
      }
    },
    {
      "doubleSided": false,
      "extensions": {
        "KHR_materials_unlit": {}
      },
      "name": "material_4",
      "pbrMetallicRoughness": {
        "baseColorFactor": [
          1,
          1,
          1,
          1
        ],
        "baseColorTexture": {
          "index": 4,
          "texCoord": 0
        },
        "metallicFactor": 0,
        "roughnessFactor": 1
      }
    }
  ],
  "meshes": [
    {
      "name": "sky_0",
      "primitives": [
        {
          "attributes": {
            "COLOR_0": 2,
            "NORMAL": 1,
            "POSITION": 0,
            "TEXCOORD_0": 3
          },
          "indices": 4,
          "material": 4,
          "mode": 4
        }
      ]
    },
    {
      "name": "veg_0",
      "primitives": [
        {
          "attributes": {
            "NORMAL": 6,
            "POSITION": 5,
            "TEXCOORD_0": 7,
            "TEXCOORD_1": 8
          },
          "indices": 9,
          "material": 3,
          "mode": 4
        }
      ]
    },
    {
      "name": "ground_0",
      "primitives": [
        {
          "attributes": {
            "NORMAL": 11,
            "POSITION": 10,
            "TEXCOORD_0": 12
          },
          "indices": 13,
          "material": 2,
          "mode": 4
        }
      ]
    },
    {
      "name": "car_0",
      "primitives": [
        {
          "attributes": {
            "NORMAL": 15,
            "POSITION": 14,
            "TEXCOORD_0": 16
          },
          "indices": 17,
          "material": 1,
          "mode": 4
        }
      ]
    },
    {
      "name": "Plane.013_0",
      "primitives": [
        {
          "attributes": {
            "NORMAL": 19,
            "POSITION": 18,
            "TEXCOORD_0": 20
          },
          "indices": 21,
          "material": 0,
          "mode": 4
        }
      ]
    }
  ],
  "nodes": [
    {
      "children": [
        1
      ],
      "name": "RootNode (gltf orientation matrix)",
      "rotation": [
        -0.70710678118654746,
        -0,
        -0,
        0.70710678118654757
      ]
    },
    {
      "children": [
        2
      ],
      "matrix": [
        0.058586984872817993,
        0,
        0,
        0,
        0,
        0.058586984872817993,
        0,
        0,
        0,
        0,
        0.058586984872817993,
        0,
        0,
        0,
        0,
        1
      ],
      "name": "RootNode (model correction matrix)"
    },
    {
      "children": [
        3,
        5,
        7,
        9,
        11
      ],
      "name": "Root"
    },
    {
      "children": [
        4
      ],
      "matrix": [
        4.3601799999999988,
        0,
        0,
        0,
        0,
        4.3601799999999988,
        0,
        0,
        0,
        0,
        4.3601799999999988,
        0,
        11.504259999999999,
        0,
        23.58615,
        1
      ],
      "name": "sky"
    },
    {
      "mesh": 0,
      "name": "sky_0"
    },
    {
      "children": [
        6
      ],
      "matrix": [
        -1.2950899999999999,
        1.63886,
        0.61642000000000008,
        0,
        -1.5966800000000001,
        -1.4200599999999999,
        0.42086000000000007,
        0,
        0.7186300000000001,
        -0.20166000000000001,
        2.0459700000000001,
        0,
        10.42014,
        -16.719450000000002,
        -0.22886000000000004,
        1
      ],
      "name": "veg"
    },
    {
      "mesh": 1,
      "name": "veg_0"
    },
    {
      "children": [
        8
      ],
      "name": "ground"
    },
    {
      "mesh": 2,
      "name": "ground_0"
    },
    {
      "children": [
        10
      ],
      "matrix": [
        1,
        0,
        0,
        0,
        0,
        1.0749299999999999,
        0,
        0,
        0,
        0,
        1,
        0,
        0,
        0,
        0,
        1
      ],
      "name": "car"
    },
    {
      "mesh": 3,
      "name": "car_0"
    },
    {
      "children": [
        12
      ],
      "matrix": [
        1.0388299999999999,
        -0.032780000000000004,
        -0.47072999999999998,
        0,
        0.24304000000000003,
        1.0127999999999999,
        0.46582000000000007,
        0,
        0.40446000000000004,
        -0.52439000000000002,
        0.92910999999999999,
        0,
        23.870509999999999,
        -23.721870000000003,
        21.459129999999998,
        1
      ],
      "name": "Plane.013"
    },
    {
      "mesh": 4,
      "name": "Plane.013_0"
    }
  ],
  "samplers": [
    {
      "magFilter": 9729,
      "minFilter": 9987,
      "wrapS": 10497,
      "wrapT": 10497
    }
  ],
  "scene": 0,
  "scenes": [
    {
      "name": "OSG_Scene",
      "nodes": [
        0
      ]
    }
  ],
  "textures": [
    {
      "sampler": 0,
      "source": 0
    },
    {
      "sampler": 0,
      "source": 1
    },
    {
      "sampler": 0,
      "source": 2
    },
    {
      "sampler": 0,
      "source": 3
    },
    {
      "sampler": 0,
      "source": 4
    }
  ]
}

